#!OML:ASF H:\Terrain\Patient Classification 1\Takeo\Monday\TakeoMonday.ASF
:FULLY-SPECIFIED
:DEGREES
291
root 5.87377 17.4751 3.17678 -4.33955 87.4054 -1.29905
lowerback 7.00586 -5.72452 0.941312
upperback 2.1584 -7.57538 -3.65895
thorax -2.28976 -3.7577 -3.59844
lowerneck -4.10526 -9.48799 -7.70527
upperneck 2.17647 -12.2633 1.76584
head 2.01163 -6.14465 1.42938
rclavicle 5.13361e-014 7.95139e-016
rhumerus -19.3317 -38.7934 6.7121
rradius 30.9261
rwrist -7.8131
rhand -49.8821 30.9121
rfingers 7.12502
rthumb -22.476 2.20003
lclavicle 5.13361e-014 7.95139e-016
lhumerus -47.2437 14.4094 39.8682
lradius 89.6121
lwrist 23.2373
lhand -27.8496 19.228
lfingers 7.12502
lthumb -1.24068 49.2041
rfemur -8.68124 4.15082 20.6279
rtibia 31.7959
rfoot -18.0233 -9.33441
rtoes -2.30267
lfemur 5.15698 2.23065 -6.26372
ltibia 22.4109
lfoot -12.4509 16.5201
ltoes -5.82237
292
root 5.88783 17.492 3.19383 -10.4411 87.044 -7.29929
lowerback 7.01174 -5.7761 1.30535
upperback 2.27332 -7.61524 -3.55419
thorax -2.20956 -3.7776 -3.69167
lowerneck -3.90126 -9.41845 -7.42099
upperneck 1.99307 -12.1861 1.35156
head 1.85836 -6.10819 1.27281
rclavicle -6.76365e-014 -1.19271e-014
rhumerus -19.9143 -38.8847 7.53355
rradius 30.9449
rwrist -8.04878
rhand -49.709 30.967
rfingers 7.12502
rthumb -22.3098 2.2349
lclavicle -6.76365e-014 -1.19271e-014
lhumerus -47.9591 14.9271 39.1283
lradius 89.4656
lwrist 23.2028
lhand -28.1535 19.7231
lfingers 7.12502
lthumb -1.53415 49.6973
rfemur -8.43501 4.49005 21.0193
rtibia 31.7769
rfoot -18.5386 -8.71373
rtoes 1.39597
lfemur 5.33285 2.17057 -5.84562
ltibia 22.7064
lfoot -12.4907 16.5177
ltoes -6.63197
293
root 5.89766 17.4891 3.21198 -14.8317 86.6566 -11.507
lowerback 7.12305 -5.76304 1.55365
upperback 2.38462 -7.57523 -3.42607
thorax -2.16708 -3.75631 -3.69535
lowerneck -3.42416 -9.42528 -6.9996
upperneck 1.51874 -12.2398 0.862182
head 1.55431 -6.13162 1.08856
rclavicle 4.08999e-014 -6.36111e-015
rhumerus -20.3358 -40.0733 8.48175
rradius 30.4329
rwrist -7.1994
rhand -49.49 31.6421
rfingers 7.12502
rthumb -22.0995 2.88499
lclavicle 4.08999e-014 -6.36111e-015
lhumerus -48.6435 15.1248 38.5134
lradius 89.427
lwrist 23.6216
lhand -28.6602 19.8803
lfingers 7.12502
lthumb -2.02349 49.8505
rfemur -8.20738 4.80301 21.4116
rtibia 31.8148
rfoot -18.8832 -8.17275
rtoes 2.97563
lfemur 5.62297 2.389 -5.37962
ltibia 22.8621
lfoot -11.8402 16.51
ltoes -9.95234
294
root 5.91095 17.4871 3.23296 -10.8005 86.3275 -7.3495
lowerback 7.1282 -5.70447 1.32446
upperback 2.4719 -7.50752 -3.4263
thorax -2.04515 -3.71849 -3.58259
lowerneck -3.57378 -9.41146 -6.45855
upperneck 1.59576 -12.2098 0.123413
head 1.51096 -6.12385 0.769519
rclavicle -7.13637e-014 -1.59028e-015
rhumerus -20.6932 -40.6113 9.3217
rradius 30.1378
rwrist -6.85224
rhand -49.5963 31.4371
rfingers 7.12502
rthumb -22.2016 2.69208
lclavicle -7.13637e-014 -1.59028e-015
lhumerus -49.1808 15.5111 38.016
lradius 89.3532
lwrist 23.9993
lhand -28.6771 20.4598
lfingers 7.12502
lthumb -2.0399 50.4298
rfemur -8.11502 5.30783 21.2531
rtibia 32.0288
rfoot -19.3424 -7.60157
rtoes 5.71976
lfemur 5.97706 2.61218 -5.47927
ltibia 22.7663
lfoot -11.4447 16.5123
ltoes -10.7941
295
root 5.9257 17.493 3.25134 -2.4054 85.9189 1.0995
lowerback 7.10899 -5.6742 0.814563
upperback 2.44187 -7.50191 -3.54079
thorax -2.01588 -3.7136 -3.4226
lowerneck -3.84127 -9.24409 -6.38443
upperneck 2.00107 -11.955 -0.155527
head 1.65589 -6.00821 0.658154
rclavicle -5.93372e-014 -2.06736e-014
rhumerus -20.8396 -39.8564 9.74557
rradius 30.1769
rwrist -7.40525
rhand -50.0339 31.1486
rfingers 7.12502
rthumb -22.6217 2.4542
lclavicle -5.93372e-014 -2.06736e-014
lhumerus -49.8725 16.0321 37.4207
lradius 89.2251
lwrist 24.1784
lhand -28.9437 21.4325
lfingers 7.12502
lthumb -2.29731 51.3999
rfemur -8.10701 5.65501 20.7182
rtibia 32.1983
rfoot -19.4129 -7.41783
rtoes 7.08855
lfemur 6.24506 2.71772 -6.0564
ltibia 22.7462
lfoot -11.6789 16.7334
ltoes -9.31203
296
root 5.93554 17.4976 3.26665 -0.603341 85.5044 2.9547
lowerback 7.15796 -5.71748 0.712529
upperback 2.37701 -7.57053 -3.58659
thorax -2.10792 -3.74904 -3.39789
lowerneck -3.54423 -9.06536 -6.76428
upperneck 2.0477 -11.7337 0.209212
head 1.66453 -5.89695 0.851156
rclavicle 1.00386e-013 4.21423e-014
rhumerus -20.9525 -39.7761 10.0622
rradius 30.148
rwrist -7.07363
rhand -49.9042 31.1167
rfingers 7.12502
rthumb -22.4972 2.40718
lclavicle 1.00386e-013 4.21423e-014
lhumerus -50.659 16.4614 36.6986
lradius 89.1781
lwrist 24.4942
lhand -29.3933 21.6302
lfingers 7.12502
lthumb -2.73152 51.5925
rfemur -8.13326 5.66833 20.6519
rtibia 32.3321
rfoot -19.298 -7.44175
rtoes 6.51096
lfemur 6.49735 2.75728 -6.18863
ltibia 22.7001
lfoot -11.9213 16.9511
ltoes -8.50453
297
root 5.94239 17.4955 3.27818 -3.93349 85.1387 -0.233535
lowerback 7.24128 -5.73635 1.2427
upperback 2.43872 -7.56133 -3.71019
thorax -2.17419 -3.74614 -3.81028
lowerneck -3.27771 -9.08571 -6.51113
upperneck 1.94956 -11.7944 0.144056
head 1.56621 -5.92518 0.804746
rclavicle -9.96408e-014 3.18055e-015
rhumerus -21.5633 -40.101 10.5374
rradius 30.1759
rwrist -6.51959
rhand -49.3427 30.3459
rfingers 7.12502
rthumb -21.9581 1.57218
lclavicle -9.96408e-014 3.18055e-015
lhumerus -50.8899 16.5449 36.0274
lradius 89.0481
lwrist 24.9958
lhand -29.5113 21.5155
lfingers 7.12502
lthumb -2.84553 51.4762
rfemur -8.03286 5.69034 21.013
rtibia 32.4387
rfoot -19.3673 -7.27503
rtoes 5.8284
lfemur 6.84 2.79916 -5.83736
ltibia 22.6446
lfoot -11.7574 16.9921
ltoes -9.21004
298
root 5.94912 17.4857 3.28881 -4.69331 84.753 -0.844658
lowerback 7.26966 -5.71339 1.59591
upperback 2.52788 -7.5066 -3.89987
thorax -2.16364 -3.71824 -4.20749
lowerneck -3.18766 -9.09212 -5.93759
upperneck 1.89991 -11.8236 -0.285056
head 1.46604 -5.94091 0.589838
rclavicle -1.68967e-014 -4.77083e-015
rhumerus -22.1833 -39.7074 10.8658
rradius 30.3811
rwrist -6.96775
rhand -49.139 29.711
rfingers 7.12502
rthumb -21.7625 0.914413
lclavicle -1.68967e-014 -4.77083e-015
lhumerus -50.9418 16.657 35.5145
lradius 88.8025
lwrist 25.3043
lhand -29.3522 21.4389
lfingers 7.12502
lthumb -2.6919 51.4017
rfemur -7.95895 6.00586 21.2157
rtibia 32.5397
rfoot -19.3219 -7.61673
rtoes 3.4763
lfemur 7.16752 2.88723 -5.68603
ltibia 22.6739
lfoot -11.5956 16.8697
ltoes -9.11321
299
root 5.95814 17.4807 3.30219 -3.42701 84.4099 0.522486
lowerback 7.23164 -5.74793 1.42805
upperback 2.6038 -7.56022 -3.92666
thorax -2.05093 -3.74163 -4.1457
lowerneck -3.1558 -8.93177 -5.79186
upperneck 1.84409 -11.6173 -0.37742
head 1.42087 -5.83733 0.549608
rclavicle 7.95139e-016 7.95139e-015
rhumerus -22.1054 -39.2174 10.7839
rradius 30.5413
rwrist -7.58622
rhand -49.2811 29.548
rfingers 7.12502
rthumb -21.899 0.767368
lclavicle 7.95139e-016 7.95139e-015
lhumerus -51.3137 17.1508 35.1594
lradius 88.6561
lwrist 25.621
lhand -29.397 21.3894
lfingers 7.12502
lthumb -2.73511 51.3516
rfemur -7.91142 6.47243 21.202
rtibia 32.6734
rfoot -19.4097 -7.85579
rtoes 2.97459
lfemur 7.43125 2.92149 -5.77147
ltibia 22.7133
lfoot -11.5527 16.8442
ltoes -8.68173
300
root 5.96907 17.4811 3.3148 -1.19451 84.1309 2.71873
lowerback 7.03305 -5.75596 1.13628
upperback 2.67349 -7.58559 -3.93799
thorax -1.83543 -3.75049 -4.01957
lowerneck -3.41802 -8.78508 -5.99647
upperneck 2.07726 -11.4017 -0.0751603
head 1.57014 -5.73194 0.661908
rclavicle 7.74763e-014 3.18055e-015
rhumerus -22.0699 -38.883 10.6991
rradius 30.7365
rwrist -7.94757
rhand -49.7984 29.3286
rfingers 7.12502
rthumb -22.3956 0.606824
lclavicle 7.74763e-014 3.18055e-015
lhumerus -51.4417 17.5562 34.9569
lradius 88.5139
lwrist 26.1606
lhand -29.8003 21.4269
lfingers 7.12502
lthumb -3.12456 51.3837
rfemur -8.03102 6.47048 20.9512
rtibia 32.885
rfoot -19.605 -7.43334
rtoes 3.69364
lfemur 7.5682 2.92812 -6.03866
ltibia 22.5958
lfoot -11.2448 17.1618
ltoes -9.89569
301
root 5.977 17.4787 3.32485 2.69562 83.8014 6.56592
lowerback 6.89182 -5.62194 0.810981
upperback 2.6621 -7.42686 -4.07464
thorax -1.7336 -3.66931 -4.01211
lowerneck -3.62369 -8.80179 -6.23676
upperneck 2.48776 -11.402 0.172311
head 1.77301 -5.73798 0.754671
rclavicle 1.54058e-014 1.82882e-014
rhumerus -22.5747 -38.6192 11.016
rradius 30.9746
rwrist -7.94399
rhand -50.1574 29.6172
rfingers 7.12502
rthumb -22.7401 0.937357
lclavicle 1.54058e-014 1.82882e-014
lhumerus -51.317 17.4533 34.9042
lradius 88.3986
lwrist 26.4964
lhand -30.4337 21.889
lfingers 7.12502
lthumb -3.73625 51.836
rfemur -8.25572 6.19051 20.4936
rtibia 33.0641
rfoot -19.4605 -7.16353
rtoes 2.54191
lfemur 7.67782 2.84766 -6.54918
ltibia 22.4706
lfoot -11.2353 17.4902
ltoes -10.3376
302
root 5.98438 17.4834 3.34244 6.41005 83.3399 10.4005
lowerback 6.97559 -5.47098 0.271124
upperback 2.5842 -7.26262 -4.22001
thorax -1.79998 -3.58618 -3.86972
lowerneck -3.41791 -8.86856 -6.04446
upperneck 2.63381 -11.503 -0.104757
head 1.75547 -5.79415 0.641428
rclavicle 1.12313e-013 8.74653e-015
rhumerus -22.7945 -38.6845 11.1633
rradius 31.0903
rwrist -7.48549
rhand -49.9295 29.8696
rfingers 7.12502
rthumb -22.5214 1.16308
lclavicle 1.12313e-013 8.74653e-015
lhumerus -51.4131 17.1936 34.6842
lradius 88.3712
lwrist 26.6889
lhand -30.7696 22.6022
lfingers 7.12502
lthumb -4.06069 52.5433
rfemur -8.17696 6.4601 20.0351
rtibia 33.053
rfoot -19.4054 -6.91263
rtoes 3.17608
lfemur 7.86687 2.7433 -7.0743
ltibia 22.6182
lfoot -11.6767 17.6348
ltoes -9.5116
303
root 5.99313 17.4898 3.36558 4.73035 82.9252 8.83203
lowerback 7.0375 -5.44537 0.221706
upperback 2.54167 -7.2351 -4.18612
thorax -1.86573 -3.57362 -3.80195
lowerneck -3.28349 -8.80799 -5.81451
upperneck 2.75439 -11.429 -0.419128
head 1.73208 -5.76256 0.515504
rclavicle -1.0143e-013 -3.18055e-015
rhumerus -22.4096 -38.7037 10.7025
rradius 31.2159
rwrist -7.39763
rhand -49.8331 29.2695
rfingers 7.12502
rthumb -22.4289 0.5518
lclavicle -1.0143e-013 -3.18055e-015
lhumerus -51.6089 17.2226 34.2687
lradius 88.3184
lwrist 27.0597
lhand -30.5851 22.9091
lfingers 7.12502
lthumb -3.88244 52.8535
rfemur -7.98535 6.983 20.3
rtibia 32.9824
rfoot -19.4079 -6.75335
rtoes 4.55943
lfemur 8.0594 2.72389 -6.84443
ltibia 22.8386
lfoot -12.2213 17.5232
ltoes -7.29683
304
root 5.99844 17.4814 3.3784 -1.0896 82.6597 3.04508
lowerback 7.04102 -5.50723 0.905239
upperback 2.57825 -7.27478 -4.03265
thorax -1.89693 -3.59695 -4.01616
lowerneck -3.57239 -8.60742 -6.00108
upperneck 3.11438 -11.1404 -0.129329
head 1.92506 -5.62259 0.621027
rclavicle -2.13197e-014 -3.97569e-015
rhumerus -21.9665 -38.2223 10.0975
rradius 31.4578
rwrist -8.05493
rhand -49.8861 28.3609
rfingers 7.12502
rthumb -22.4798 -0.350699
lclavicle -2.13197e-014 -3.97569e-015
lhumerus -51.6989 17.3067 34.0451
lradius 88.2686
lwrist 27.3088
lhand -30.5288 23.3104
lfingers 7.12502
lthumb -3.82808 53.2558
rfemur -7.9598 6.8444 21.2454
rtibia 32.8487
rfoot -18.7892 -7.32376
rtoes 0.237427
lfemur 8.17038 2.99113 -5.8875
ltibia 23.0384
lfoot -11.8783 17.279
ltoes -8.00912
305
root 6.00422 17.4842 3.38744 -3.11294 82.4561 1.04422
lowerback 7.0203 -5.56267 1.14033
upperback 2.60443 -7.33307 -3.9469
thorax -1.8809 -3.62699 -4.05424
lowerneck -3.67395 -8.49945 -6.03035
upperneck 3.16962 -10.998 0.0803636
head 1.97316 -5.54932 0.689891
rclavicle 1.54555e-014 -1.66979e-014
rhumerus -21.5961 -37.6035 9.62918
rradius 31.7908
rwrist -8.78391
rhand -49.8813 27.8616
rfingers 7.12502
rthumb -22.4752 -0.850588
lclavicle 1.54555e-014 -1.66979e-014
lhumerus -51.8194 17.4641 34.0721
lradius 88.258
lwrist 27.4176
lhand -30.6927 23.7951
lfingers 7.12502
lthumb -3.98642 53.7375
rfemur -7.74855 7.44494 21.5353
rtibia 32.7719
rfoot -19.2371 -6.92925
rtoes 3.65194
lfemur 8.21295 3.26942 -5.4922
ltibia 23.2314
lfoot -11.0523 17.2145
ltoes -11.1863
